ffmpeg started on 2016-12-06 at 15:56:35
Report written to "Output/x264/results/ffmpeg/crowd_run_2160p50medium2000k.log"
Command line:
Tools/ffmpeg/ffmpeg -benchmark -y -i Input/y4m/crowd_run_2160p50.y4m -c:v libx264 -preset medium -b:v 2000k -an Output/x264/encoded/crowd_run_2160p50medium2000k.mkv
ffmpeg version N-82227-gdb23fde Copyright (c) 2000-2016 the FFmpeg developers
  built with gcc 5.4.0 (Ubuntu 5.4.0-6ubuntu1~16.04.2) 20160609
  configuration: --prefix=/home/jaroslav/ffmpeg_build --pkg-config-flags=--static --extra-cflags=-I/home/jaroslav/ffmpeg_build/include --extra-ldflags=-L/home/jaroslav/ffmpeg_build/lib --bindir=/home/jaroslav/bin --enable-gpl --enable-libass --enable-libfdk-aac --enable-libfreetype --enable-libmp3lame --enable-libopus --enable-libtheora --enable-libvorbis --enable-libvpx --enable-libx264 --enable-libx265 --enable-nvenc --enable-libmfx --enable-libxvid --enable-libgsm --enable-libopencore-amrnb --enable-version3 --enable-nonfree
  libavutil      55. 35.100 / 55. 35.100
  libavcodec     57. 66.101 / 57. 66.101
  libavformat    57. 57.100 / 57. 57.100
  libavdevice    57.  2.100 / 57.  2.100
  libavfilter     6. 66.100 /  6. 66.100
  libswscale      4.  3.100 /  4.  3.100
  libswresample   2.  4.100 /  2.  4.100
  libpostproc    54.  2.100 / 54.  2.100
Input #0, yuv4mpegpipe, from 'Input/y4m/crowd_run_2160p50.y4m':
  Duration: 00:00:10.00, start: 0.000000, bitrate: 4976642 kb/s
    Stream #0:0: Video: rawvideo (I420 / 0x30323449), yuv420p(progressive), 3840x2160, SAR 1:1 DAR 16:9, 50 fps, 50 tbr, 50 tbn, 50 tbc
[libx264 @ 0x36051c0] using SAR=1/1
[libx264 @ 0x36051c0] using cpu capabilities: MMX2 SSE2Fast SSSE3 SSE4.2 AVX FMA3 AVX2 LZCNT BMI2
[libx264 @ 0x36051c0] profile High, level 5.2
[libx264 @ 0x36051c0] 264 - core 148 - H.264/MPEG-4 AVC codec - Copyleft 2003-2016 - http://www.videolan.org/x264.html - options: cabac=1 ref=3 deblock=1:0:0 analyse=0x3:0x113 me=hex subme=7 psy=1 psy_rd=1.00:0.00 mixed_ref=1 me_range=16 chroma_me=1 trellis=1 8x8dct=1 cqm=0 deadzone=21,11 fast_pskip=1 chroma_qp_offset=-2 threads=6 lookahead_threads=1 sliced_threads=0 nr=0 decimate=1 interlaced=0 bluray_compat=0 constrained_intra=0 bframes=3 b_pyramid=2 b_adapt=1 b_bias=0 direct=1 weightb=1 open_gop=0 weightp=2 keyint=250 keyint_min=25 scenecut=40 intra_refresh=0 rc_lookahead=40 rc=abr mbtree=1 bitrate=2000 ratetol=1.0 qcomp=0.60 qpmin=0 qpmax=69 qpstep=4 ip_ratio=1.40 aq=1:1.00
Output #0, matroska, to 'Output/x264/encoded/crowd_run_2160p50medium2000k.mkv':
  Metadata:
    encoder         : Lavf57.57.100
    Stream #0:0: Video: h264 (libx264) (H264 / 0x34363248), yuv420p, 3840x2160 [SAR 1:1 DAR 16:9], q=-1--1, 2000 kb/s, 50 fps, 1k tbn, 50 tbc
    Metadata:
      encoder         : Lavc57.66.101 libx264
    Side data:
      cpb: bitrate max/min/avg: 0/0/2000000 buffer size: 0 vbv_delay: -1
Stream mapping:
  Stream #0:0 -> #0:0 (rawvideo (native) -> h264 (libx264))
Press [q] to stop, [?] for help
frame=   19 fps=0.0 q=0.0 size=       0kB time=00:00:00.00 bitrate=N/A speed=   0x    frame=   33 fps= 32 q=0.0 size=       0kB time=00:00:00.00 bitrate=N/A speed=   0x    frame=   43 fps= 28 q=0.0 size=       0kB time=00:00:00.00 bitrate=N/A speed=   0x    frame=   47 fps= 12 q=0.0 size=       0kB time=00:00:00.00 bitrate=N/A speed=   0x    frame=   54 fps= 13 q=49.0 size=       1kB time=00:00:00.02 bitrate= 279.6kbits/s speed=0.00487x    frame=   58 fps= 12 q=55.0 size=       1kB time=00:00:00.10 bitrate=  58.1kbits/s speed=0.0209x    frame=   63 fps= 12 q=64.0 size=       1kB time=00:00:00.20 bitrate=  29.2kbits/s speed=0.0376x    frame=   72 fps= 12 q=64.0 size=       1kB time=00:00:00.38 bitrate=  15.4kbits/s speed=0.0643x    frame=   80 fps= 12 q=64.0 size=       1kB time=00:00:00.54 bitrate=  10.9kbits/s speed=0.0841x    frame=   88 fps= 13 q=64.0 size=       1kB time=00:00:00.70 bitrate=   8.4kbits/s speed=0.101x    frame=   94 fps= 13 q=64.0 size=       1kB time=00:00:00.82 bitrate=   7.2kbits/s speed=0.11x    frame=  104 fps= 13 q=64.0 size=       1kB time=00:00:01.02 bitrate=   5.8kbits/s speed=0.127x    frame=  112 fps= 13 q=63.0 size=       1kB time=00:00:01.18 bitrate=   5.0kbits/s speed=0.138x    frame=  120 fps= 13 q=63.0 size=       1kB time=00:00:01.34 bitrate=   4.4kbits/s speed=0.148x    frame=  129 fps= 13 q=63.0 size=       1kB time=00:00:01.52 bitrate=   3.9kbits/s speed=0.158x    frame=  138 fps= 14 q=63.0 size=       1kB time=00:00:01.70 bitrate=   3.5kbits/s speed=0.168x    frame=  146 fps= 14 q=63.0 size=       1kB time=00:00:01.86 bitrate=   3.2kbits/s speed=0.175x    frame=  154 fps= 14 q=63.0 size=       1kB time=00:00:02.02 bitrate=   2.9kbits/s speed=0.181x    frame=  158 fps= 13 q=63.0 size=       1kB time=00:00:02.10 bitrate=   2.8kbits/s speed=0.179x    frame=  168 fps= 13 q=62.0 size=       1kB time=00:00:02.30 bitrate=   2.6kbits/s speed=0.182x    frame=  175 fps= 13 q=62.0 size=       1kB time=00:00:02.44 bitrate=   2.4kbits/s speed=0.183x    frame=  184 fps= 13 q=62.0 size=       1kB time=00:00:02.62 bitrate=   2.2kbits/s speed=0.189x    frame=  192 fps= 13 q=62.0 size=       1kB time=00:00:02.78 bitrate=   2.1kbits/s speed=0.194x    frame=  197 fps= 13 q=62.0 size=       1kB time=00:00:02.88 bitrate=   2.0kbits/s speed=0.192x    frame=  203 fps= 13 q=62.0 size=       1kB time=00:00:03.00 bitrate=   2.0kbits/s speed=0.194x    frame=  211 fps= 13 q=62.0 size=       1kB time=00:00:03.16 bitrate=   1.9kbits/s speed=0.197x    frame=  219 fps= 13 q=62.0 size=       1kB time=00:00:03.32 bitrate=   1.8kbits/s speed=0.201x    frame=  228 fps= 13 q=62.0 size=       1kB time=00:00:03.50 bitrate=   1.7kbits/s speed=0.204x    frame=  236 fps= 13 q=62.0 size=       1kB time=00:00:03.66 bitrate=   1.6kbits/s speed=0.207x    frame=  244 fps= 13 q=62.0 size=       1kB time=00:00:03.82 bitrate=   1.5kbits/s speed=0.21x    frame=  252 fps= 13 q=62.0 size=       1kB time=00:00:03.98 bitrate=   1.5kbits/s speed=0.213x    frame=  260 fps= 14 q=62.0 size=       1kB time=00:00:04.14 bitrate=   1.4kbits/s speed=0.215x    frame=  268 fps= 14 q=62.0 size=       1kB time=00:00:04.30 bitrate=   1.4kbits/s speed=0.218x    frame=  276 fps= 14 q=62.0 size=       1kB time=00:00:04.46 bitrate=   1.3kbits/s speed=0.22x    frame=  284 fps= 14 q=61.0 size=       1kB time=00:00:04.62 bitrate=   1.3kbits/s speed=0.222x    frame=  292 fps= 14 q=61.0 size=       1kB time=00:00:04.78 bitrate=   1.2kbits/s speed=0.224x    frame=  297 fps= 13 q=62.0 size=       1kB time=00:00:04.88 bitrate=   1.2kbits/s speed=0.215x    frame=  306 fps= 13 q=62.0 size=    1264kB time=00:00:05.06 bitrate=2046.6kbits/s speed=0.218x    frame=  312 fps= 13 q=62.0 size=    1264kB time=00:00:05.18 bitrate=1999.2kbits/s speed=0.218x    frame=  318 fps= 13 q=62.0 size=    1264kB time=00:00:05.30 bitrate=1953.9kbits/s speed=0.218x    frame=  323 fps= 13 q=62.0 size=    1264kB time=00:00:05.40 bitrate=1917.7kbits/s speed=0.218x    frame=  331 fps= 13 q=62.0 size=    1264kB time=00:00:05.56 bitrate=1862.5kbits/s speed=0.219x    frame=  339 fps= 13 q=62.0 size=    1264kB time=00:00:05.72 bitrate=1810.5kbits/s speed=0.22x    frame=  342 fps= 13 q=62.0 size=    1264kB time=00:00:05.78 bitrate=1791.7kbits/s speed=0.218x    frame=  349 fps= 13 q=62.0 size=    1264kB time=00:00:05.92 bitrate=1749.3kbits/s speed=0.219x    frame=  350 fps= 13 q=62.0 size=    1264kB time=00:00:05.94 bitrate=1743.4kbits/s speed=0.215x    frame=  353 fps= 12 q=62.0 size=    1264kB time=00:00:06.00 bitrate=1726.0kbits/s speed=0.212x    frame=  356 fps= 12 q=62.0 size=    1264kB time=00:00:06.06 bitrate=1708.9kbits/s speed=0.208x    frame=  362 fps= 12 q=62.0 size=    1264kB time=00:00:06.18 bitrate=1675.7kbits/s speed=0.207x    frame=  367 fps= 12 q=62.0 size=    1264kB time=00:00:06.28 bitrate=1649.0kbits/s speed=0.205x    frame=  372 fps= 12 q=62.0 size=    1264kB time=00:00:06.38 bitrate=1623.2kbits/s speed=0.203x    frame=  374 fps= 12 q=62.0 size=    1264kB time=00:00:06.42 bitrate=1613.1kbits/s speed= 0.2x    frame=  376 fps= 11 q=62.0 size=    1264kB time=00:00:06.46 bitrate=1603.1kbits/s speed=0.197x    frame=  378 fps= 11 q=62.0 size=    1264kB time=00:00:06.50 bitrate=1593.2kbits/s speed=0.193x    frame=  383 fps= 11 q=62.0 size=    1264kB time=00:00:06.60 bitrate=1569.1kbits/s speed=0.191x    frame=  386 fps= 11 q=62.0 size=    1264kB time=00:00:06.66 bitrate=1555.0kbits/s speed=0.19x    frame=  389 fps= 11 q=62.0 size=    1264kB time=00:00:06.72 bitrate=1541.1kbits/s speed=0.188x    frame=  391 fps= 11 q=62.0 size=    1264kB time=00:00:06.76 bitrate=1532.0kbits/s speed=0.185x    frame=  394 fps= 11 q=62.0 size=    1264kB time=00:00:06.82 bitrate=1518.5kbits/s speed=0.183x    frame=  400 fps= 11 q=62.0 size=    1264kB time=00:00:06.94 bitrate=1492.2kbits/s speed=0.182x    frame=  402 fps= 10 q=62.0 size=    1264kB time=00:00:06.98 bitrate=1483.7kbits/s speed=0.181x    frame=  410 fps= 10 q=62.0 size=    1264kB time=00:00:07.14 bitrate=1450.4kbits/s speed=0.183x    frame=  418 fps= 11 q=62.0 size=    1264kB time=00:00:07.30 bitrate=1418.7kbits/s speed=0.184x    frame=  426 fps= 11 q=62.0 size=    1264kB time=00:00:07.46 bitrate=1388.2kbits/s speed=0.186x    frame=  430 fps= 11 q=62.0 size=    1264kB time=00:00:07.54 bitrate=1373.5kbits/s speed=0.184x    frame=  432 fps= 10 q=62.0 size=    1264kB time=00:00:07.58 bitrate=1366.3kbits/s speed=0.182x    frame=  434 fps= 10 q=62.0 size=    1264kB time=00:00:07.62 bitrate=1359.1kbits/s speed=0.18x    frame=  437 fps= 10 q=62.0 size=    1264kB time=00:00:07.68 bitrate=1348.5kbits/s speed=0.178x    frame=  443 fps= 10 q=62.0 size=    1264kB time=00:00:07.80 bitrate=1327.7kbits/s speed=0.179x    frame=  452 fps= 10 q=62.0 size=    1264kB time=00:00:07.98 bitrate=1297.8kbits/s speed=0.18x    frame=  459 fps= 10 q=62.0 size=    1264kB time=00:00:08.12 bitrate=1275.4kbits/s speed=0.181x    frame=  462 fps= 10 q=62.0 size=    1264kB time=00:00:08.18 bitrate=1266.1kbits/s speed=0.179x    frame=  466 fps= 10 q=62.0 size=    1264kB time=00:00:08.26 bitrate=1253.8kbits/s speed=0.178x    frame=  468 fps=9.9 q=62.0 size=    1264kB time=00:00:08.30 bitrate=1247.8kbits/s speed=0.176x    frame=  476 fps=9.9 q=62.0 size=    1264kB time=00:00:08.46 bitrate=1224.2kbits/s speed=0.176x    frame=  478 fps=9.8 q=62.0 size=    1264kB time=00:00:08.50 bitrate=1218.4kbits/s speed=0.175x    frame=  480 fps=9.7 q=62.0 size=    1264kB time=00:00:08.54 bitrate=1212.7kbits/s speed=0.172x    frame=  482 fps=9.6 q=62.0 size=    1264kB time=00:00:08.58 bitrate=1207.0kbits/s speed=0.171x    frame=  483 fps=9.5 q=62.0 size=    1264kB time=00:00:08.60 bitrate=1204.2kbits/s speed=0.168x    frame=  486 fps=9.4 q=62.0 size=    1264kB time=00:00:08.66 bitrate=1195.9kbits/s speed=0.167x    frame=  492 fps=9.4 q=62.0 size=    1264kB time=00:00:08.78 bitrate=1179.5kbits/s speed=0.167x    frame=  500 fps=9.4 q=62.0 size=    1264kB time=00:00:08.94 bitrate=1158.4kbits/s speed=0.168x    frame=  500 fps=9.0 q=-1.0 Lsize=    2508kB time=00:00:09.94 bitrate=2066.7kbits/s speed=0.178x    
video:2504kB audio:0kB subtitle:0kB other streams:0kB global headers:0kB muxing overhead: 0.169005%
bench: utime=122.764s
bench: maxrss=1836192kB
[libx264 @ 0x36051c0] frame I:2     Avg QP:47.35  size: 70448
[libx264 @ 0x36051c0] frame P:126   Avg QP:50.95  size: 15295
[libx264 @ 0x36051c0] frame B:372   Avg QP:50.97  size:  1331
[libx264 @ 0x36051c0] consecutive B-frames:  0.8%  0.0%  0.0% 99.2%
[libx264 @ 0x36051c0] mb I  I16..4: 40.3% 58.3%  1.5%
[libx264 @ 0x36051c0] mb P  I16..4:  7.1%  2.4%  0.0%  P16..4: 14.1%  1.0%  5.6%  0.0%  0.0%    skip:69.9%
[libx264 @ 0x36051c0] mb B  I16..4:  0.0%  0.0%  0.0%  B16..8:  4.1%  0.0%  0.0%  direct: 0.0%  skip:95.9%  L0:34.6% L1:65.4% BI: 0.0%
[libx264 @ 0x36051c0] final ratefactor: 53.66
[libx264 @ 0x36051c0] 8x8 transform intra:29.7% inter:99.3%
[libx264 @ 0x36051c0] coded y,uvDC,uvAC intra: 3.7% 27.5% 1.2% inter: 0.2% 0.9% 0.0%
[libx264 @ 0x36051c0] i16 v,h,dc,p: 73% 20%  5%  3%
[libx264 @ 0x36051c0] i8 v,h,dc,ddl,ddr,vr,hd,vl,hu: 13%  6% 67%  3%  2%  3%  2%  2%  2%
[libx264 @ 0x36051c0] i4 v,h,dc,ddl,ddr,vr,hd,vl,hu: 30% 19% 14%  9%  8%  7%  6%  5%  4%
[libx264 @ 0x36051c0] i8c dc,h,v,p: 98%  1%  1%  0%
[libx264 @ 0x36051c0] Weighted P-Frames: Y:1.6% UV:0.8%
[libx264 @ 0x36051c0] ref P L0: 72.0%  0.5% 17.4% 10.0%  0.2%
[libx264 @ 0x36051c0] ref B L0: 94.0%  2.9%  3.1%
[libx264 @ 0x36051c0] ref B L1: 97.4%  2.6%
[libx264 @ 0x36051c0] kb/s:2050.51
